# xmcd
#
# Track frame offsets:
#   150
#   23324
#   42934
#   54077
#   72315
#   87955
#   101644
#   122713
#   136176
#   155366
#   173007
#   188040
#   204503
#   219149
#   233742
#   248377
#   262542
#   278390
#
# Disc length: 3902 seconds
#
# Revision: 0
# Processed by: cddbd v1.5.2PL0 Copyright (c) Steve Scherf et al.
# Submitted via: uFREEDB ActiveX Control 1.5
#
DISCID=d20f3c12
DTITLE=Wando - O melhor de Wando ao vivo
DYEAR=1900
DGENRE=Blues
TTITLE0=Estou apaixonado 
TTITLE1=Meu bem querer	
TTITLE2=Um dia de domingo	
TTITLE3=Me chama
TTITLE4=Como uma onda 
TTITLE5=Evidências
TTITLE6=Menina	
TTITLE7=Moça
TTITLE8=Revelação	
TTITLE9=Amor i love you
TTITLE10=É  o amor	
TTITLE11=O  último romântico	
TTITLE12=Deslizes	
TTITLE13=Sábado	
TTITLE14=Todo azul do mar	
TTITLE15=Certas coisas	
TTITLE16=Espanhola	
TTITLE17=Fogo e paixão
EXTD=
EXTT0=
EXTT1=
EXTT2=
EXTT3=
EXTT4=
EXTT5=
EXTT6=
EXTT7=
EXTT8=
EXTT9=
EXTT10=
EXTT11=
EXTT12=
EXTT13=
EXTT14=
EXTT15=
EXTT16=
EXTT17=
PLAYORDER=
